<svg xmlns:xlink="http://www.w3.org/1999/xlink" xmlns="http://www.w3.org/2000/svg" class="sg-icon__svg" width="512"  height="512" ><defs><symbol viewBox="0 0 512 512" style="overflow: visible" id="icon-academic_cap" xmlns="http://www.w3.org/2000/svg"><title>academic cap</title><path d="M400.248 280.18v72.535c0 9.219-5.1 17.68-13.251 21.986l-133.367 70.45a24.865 24.865 0 0 1-23.228 0L97.035 374.7a24.865 24.865 0 0 1-13.251-21.986V280.18l146.618 77.45a24.865 24.865 0 0 0 23.228 0l146.618-77.45zM218.797 69.694a49.73 49.73 0 0 1 46.438 0L477.41 181.72a24.865 24.865 0 0 1 13.256 21.989v137.45c0 12.484-10.12 22.604-22.605 22.604-12.484 0-22.605-10.12-22.605-22.605v-128.59l-180.22 95.172a49.73 49.73 0 0 1-46.442.002L35.01 210.707a24.865 24.865 0 0 1-10.379-10.379c-6.411-12.143-1.765-27.186 10.38-33.598z"></path></symbol></defs><use xlink:href="#icon-academic_cap"></use></svg>