<svg xmlns:xlink="http://www.w3.org/1999/xlink" xmlns="http://www.w3.org/2000/svg" class="sg-icon__svg" width="512"  height="512" ><defs><symbol viewBox="0 0 512 512" style="overflow: visible" id="icon-answer" xmlns="http://www.w3.org/2000/svg"><title>answer</title><path d="M388.5 85.33h-265a38.16 38.16 0 0 0-38.17 38.16V388.5a38.16 38.16 0 0 0 38.17 38.17h265a38.16 38.16 0 0 0 38.17-38.17v-265a38.16 38.16 0 0 0-38.17-38.17zM234.67 362.67h-85.34a21.33 21.33 0 0 1 0-42.67h85.34a21.33 21.33 0 0 1 0 42.67zm128-85.34H149.33a21.33 21.33 0 1 1 0-42.66h213.34a21.33 21.33 0 1 1 0 42.66zm0-85.33H149.33a21.33 21.33 0 0 1 0-42.67h213.34a21.33 21.33 0 0 1 0 42.67z"></path></symbol></defs><use xlink:href="#icon-answer" fill="#687B8C"></use></svg>