<svg xmlns:xlink="http://www.w3.org/1999/xlink" xmlns="http://www.w3.org/2000/svg" class="sg-subject-icon sg-subject-icon--small" width="24"  height="24" ><defs><symbol viewBox="0 0 24 24" style="overflow: visible" id="icon-subject-chemistry" xmlns="http://www.w3.org/2000/svg"><defs><style>.aob{fill:#020a1a}.aoc{fill:#b4efc2}</style></defs><title>chemistry_1</title><path class="aob" d="M14 8.26V5a1 1 0 0 0 1-1V3a1 1 0 0 0-1-1h-4a1 1 0 0 0-1 1v1a1 1 0 0 0 1 1v3.28a7 7 0 1 0 4 0zm-2.7 3.95a.81.81 0 1 1 .81-.81.81.81 0 0 1-.82.81zm3.17 2.56a1.27 1.27 0 1 1 1.27-1.27 1.27 1.27 0 0 1-1.28 1.27z" fill="#020A1A"></path><path class="aoc" d="M12 20a5 5 0 0 0 4.76-3.45 5.22 5.22 0 0 1-4.74-1.33C10 13.6 8.39 13.35 7.21 13.64A5 5 0 0 0 7 15a5 5 0 0 0 5 5z" fill="#B4EFC2"></path></symbol></defs><use xlink:href="#icon-subject-chemistry" fill="#FFFFFF"></use></svg>