<svg xmlns:xlink="http://www.w3.org/1999/xlink" xmlns="http://www.w3.org/2000/svg" id="artwork" viewBox="0 0 135 40" width="135"  height="40" >
  <defs>
    <style>
      .cls-1{fill:#a6a6a6;}.cls-10,.cls-2,.cls-3{fill:#fff;}.cls-2{stroke:#fff;stroke-miterlimit:10;stroke-width:0.2px;}.cls-4{fill:url(#linear-gradient);}.cls-5{fill:url(#linear-gradient-2);}.cls-6{fill:url(#linear-gradient-3);}.cls-7{fill:url(#linear-gradient-4);}.cls-8{opacity:0.2;}.cls-10,.cls-8,.cls-9{isolation:isolate;}.cls-9{opacity:0.12;}.cls-10{opacity:0.25;}
    </style>
    <linearGradient id="linear-gradient" x1="31.8" x2="15.02" y1="183.29" y2="166.51" gradientTransform="matrix(1 0 0 -1 0 202)" gradientUnits="userSpaceOnUse">
      <stop offset="0" stop-color="#00a0ff"/>
      <stop offset=".01" stop-color="#00a1ff"/>
      <stop offset=".26" stop-color="#00beff"/>
      <stop offset=".51" stop-color="#00d2ff"/>
      <stop offset=".76" stop-color="#00dfff"/>
      <stop offset="1" stop-color="#00e3ff"/>
    </linearGradient>
    <linearGradient id="linear-gradient-2" x1="43.83" x2="19.64" y1="172" y2="172" gradientTransform="matrix(1 0 0 -1 0 202)" gradientUnits="userSpaceOnUse">
      <stop offset="0" stop-color="#ffe000"/>
      <stop offset=".41" stop-color="#ffbd00"/>
      <stop offset=".78" stop-color="orange"/>
      <stop offset="1" stop-color="#ff9c00"/>
    </linearGradient>
    <linearGradient id="linear-gradient-3" x1="34.83" x2="12.07" y1="169.7" y2="146.95" gradientTransform="matrix(1 0 0 -1 0 202)" gradientUnits="userSpaceOnUse">
      <stop offset="0" stop-color="#ff3a44"/>
      <stop offset="1" stop-color="#c31162"/>
    </linearGradient>
    <linearGradient id="linear-gradient-4" x1="17.3" x2="27.46" y1="191.82" y2="181.66" gradientTransform="matrix(1 0 0 -1 0 202)" gradientUnits="userSpaceOnUse">
      <stop offset="0" stop-color="#32a071"/>
      <stop offset=".07" stop-color="#2da771"/>
      <stop offset=".48" stop-color="#15cf74"/>
      <stop offset=".8" stop-color="#06e775"/>
      <stop offset="1" stop-color="#00f076"/>
    </linearGradient>
  </defs>
  <rect width="135" height="40" rx="5" ry="5"/>
  <path d="M130 .8a4.2 4.2 0 0 1 4.2 4.2v30a4.2 4.2 0 0 1-4.2 4.2H5A4.2 4.2 0 0 1 .8 35V5A4.2 4.2 0 0 1 5 .8h125m0-.8H5a5 5 0 0 0-5 5v30a5 5 0 0 0 5 5h125a5 5 0 0 0 5-5V5a5 5 0 0 0-5-5z" class="cls-1"/>
  <path d="M47.42 10.24a2.7 2.7 0 0 1-.75 2 2.9 2.9 0 0 1-2.2.9 3.15 3.15 0 0 1-2.2-5.38 3 3 0 0 1 2.2-.9 3.1 3.1 0 0 1 1.23.25 2.47 2.47 0 0 1 .94.68l-.53.53a2 2 0 0 0-1.63-.7 2.32 2.32 0 0 0-2.33 2.4 2.36 2.36 0 0 0 4 1.73 1.9 1.9 0 0 0 .5-1.22h-2.17v-.7h2.9a2.54 2.54 0 0 1 .05.44zM52 7.74h-2.7v1.9h2.46v.72H49.3v1.9H52V13h-3.5V7H52zM55.28 13h-.77V7.74h-1.67V7H57v.74h-1.72zm4.66 0V7h.77v6zm4.2 0h-.78V7.74h-1.68V7h4.12v.74h-1.67zm9.47-.78a3.12 3.12 0 0 1-4.4 0 3.24 3.24 0 0 1 0-4.45 3.1 3.1 0 0 1 4.4 0 3.23 3.23 0 0 1 0 4.45zm-3.82-.5a2.3 2.3 0 0 0 3.26 0 2.56 2.56 0 0 0 0-3.44 2.3 2.3 0 0 0-3.26 0 2.56 2.56 0 0 0 0 3.44zm5.8 1.28V7h.94l2.92 4.67V7h.77v6h-.8l-3.04-4.9V13z" class="cls-2"/>
  <path d="M68.14 21.75A4.25 4.25 0 1 0 72.4 26a4.2 4.2 0 0 0-4.26-4.25zm0 6.83a2.58 2.58 0 1 1 2.4-2.58 2.46 2.46 0 0 1-2.4 2.58zm-9.3-6.83A4.25 4.25 0 1 0 63.08 26a4.2 4.2 0 0 0-4.28-4.25zm0 6.83A2.58 2.58 0 1 1 61.2 26a2.46 2.46 0 0 1-2.4 2.58zm-11.1-5.52v1.8h4.32a3.77 3.77 0 0 1-1 2.27 4.42 4.42 0 0 1-3.33 1.32 4.8 4.8 0 0 1 0-9.6 4.6 4.6 0 0 1 3.27 1.3l1.27-1.28A6.3 6.3 0 0 0 47.74 17a6.6 6.6 0 1 0 0 13.2 6 6 0 0 0 4.6-1.84 6 6 0 0 0 1.57-4.22 5.87 5.87 0 0 0-.1-1.13zm45.3 1.4a4 4 0 0 0-3.63-2.7 4 4 0 0 0-4 4.24 4.16 4.16 0 0 0 4.23 4.25 4.23 4.23 0 0 0 3.54-1.88l-1.45-1a2.43 2.43 0 0 1-2.1 1.18 2.16 2.16 0 0 1-2.05-1.3l5.7-2.34zm-5.8 1.42a2.33 2.33 0 0 1 2.23-2.48 1.65 1.65 0 0 1 1.58.9zM82.65 30h1.86V17.5h-1.87zm-3.07-7.3h-.07a3 3 0 0 0-2.24-1 4.26 4.26 0 0 0 0 8.5 2.9 2.9 0 0 0 2.24-1h.06v.62c0 1.63-.87 2.5-2.27 2.5a2.35 2.35 0 0 1-2.15-1.5l-1.63.67A4.05 4.05 0 0 0 77.3 34c2.18 0 4-1.3 4-4.43V22h-1.73zm-2.14 5.88a2.6 2.6 0 0 1 0-5.16A2.4 2.4 0 0 1 79.7 26a2.38 2.38 0 0 1-2.28 2.58zM101.8 17.5h-4.46V30h1.87v-4.74h2.62a3.9 3.9 0 1 0 0-7.76zm0 6h-2.6v-4.26h2.65a2.15 2.15 0 1 1 0 4.3zm11.54-1.8a3.5 3.5 0 0 0-3.33 1.9l1.67.7a1.77 1.77 0 0 1 1.7-.92 1.8 1.8 0 0 1 2 1.6v.14a4.13 4.13 0 0 0-1.95-.48c-1.8 0-3.6 1-3.6 2.8a2.9 2.9 0 0 0 3.1 2.76 2.63 2.63 0 0 0 2.4-1.2h.06v1h1.8v-4.8c0-2.2-1.66-3.47-3.8-3.47zm-.23 6.85c-.6 0-1.45-.3-1.45-1.06 0-1 1.06-1.34 2-1.34a3.32 3.32 0 0 1 1.7.42 2.26 2.26 0 0 1-2.2 2zM123.75 22l-2.14 5.42h-.06L119.32 22h-2l3.33 7.58-1.9 4.2h1.95L125.82 22zm-16.8 8h1.86V17.5h-1.87z" class="cls-3"/>
  <path d="M10.44 7.54a2 2 0 0 0-.46 1.4v22.12a2 2 0 0 0 .46 1.4l.07.07 12.4-12.38v-.3L10.5 7.48z" class="cls-4"/>
  <path d="M27 24.28l-4.1-4.13v-.3l4.1-4.13.1.05 4.9 2.8c1.4.78 1.4 2.08 0 2.88l-4.9 2.78z" class="cls-5"/>
  <path d="M27.12 24.22L22.9 20 10.44 32.46a1.63 1.63 0 0 0 2.08.06l14.6-8.3" class="cls-6"/>
  <path d="M27.12 15.78l-14.6-8.3a1.63 1.63 0 0 0-2.1.06L22.9 20z" class="cls-7"/>
  <path d="M27 24.13l-14.5 8.25a1.67 1.67 0 0 1-2 0l-.06.07.07.07a1.66 1.66 0 0 0 2 0l14.62-8.3z" class="cls-8"/>
  <path d="M10.44 32.32a2 2 0 0 1-.46-1.4v.15a2 2 0 0 0 .46 1.4l.07-.07zM32 21.3l-5 2.83.1.1 4.9-2.8A1.75 1.75 0 0 0 33 20a1.86 1.86 0 0 1-1 1.3z" class="cls-9"/>
  <path d="M12.5 7.62L32 18.7a1.86 1.86 0 0 1 1 1.3 1.75 1.75 0 0 0-1-1.44L12.5 7.48c-1.4-.8-2.53-.13-2.53 1.47v.15c.03-1.6 1.15-2.27 2.54-1.48z" class="cls-10"/>
</svg>