<svg xmlns:xlink="http://www.w3.org/1999/xlink" xmlns="http://www.w3.org/2000/svg" class="sg-subject-icon sg-subject-icon--small" width="24"  height="24" ><defs><symbol viewBox="0 0 24 24" style="overflow: visible" id="icon-subject-economics" xmlns="http://www.w3.org/2000/svg"><defs><style>.aqb{fill:#fec83c}.aqc{fill:#020a1a}</style></defs><title>economics</title><circle class="aqb" cx="12.13" cy="11.92" r="7.13" fill="#FEC83C"></circle><path class="aqc" d="M12.39 19a6.62 6.62 0 0 1-3.62-1.2 1 1 0 1 1 1.11-1.66c1.34.9 2.62 1.15 3.5.68a1.65 1.65 0 0 0 .89-1.44 2 2 0 0 0-1.21-1.74l-.55-.28c-1.7-.86-5.22-2.66-4.2-5.78A3.81 3.81 0 0 1 11 4.92a4.63 4.63 0 0 1 4.18 1.17 1 1 0 1 1-1.4 1.43 2.64 2.64 0 0 0-2.31-.66 1.83 1.83 0 0 0-1.31 1.33c-.45 1.38 1.33 2.43 3.21 3.38l.59.31a4 4 0 0 1 2.26 3.51 3.64 3.64 0 0 1-1.95 3.2 4.07 4.07 0 0 1-1.88.41z" fill="#020A1A"></path><path class="aqc" d="M12 6.25a1 1 0 0 1-1-1V3a1 1 0 0 1 2 0v2.25a1 1 0 0 1-1 1zM12 22a1 1 0 0 1-1-1v-2.67a1 1 0 0 1 2 0V21a1 1 0 0 1-1 1z" fill="#020A1A"></path></symbol></defs><use xlink:href="#icon-subject-economics" fill="#FFFFFF"></use></svg>