<svg xmlns:xlink="http://www.w3.org/1999/xlink" xmlns="http://www.w3.org/2000/svg" class="sg-subject-icon sg-subject-icon--small" width="24"  height="24" ><defs><symbol viewBox="0 0 24 24" style="overflow: visible" id="icon-subject-english" xmlns="http://www.w3.org/2000/svg"><defs><style>.asb{fill:#020a1a}.asc{fill:#abe1ff}</style></defs><title>english</title><path class="asb" d="M21 4H3a1 1 0 0 0-1 1v15.79a.5.5 0 0 0 .85.35L7 17h14a1 1 0 0 0 1-1V5a1 1 0 0 0-1-1z" fill="#020A1A"></path><path class="asc" d="M13.89 10.74v2.77a.5.5 0 0 1-.5.5h-.8a.5.5 0 0 1-.5-.5v-6a.5.5 0 0 1 .5-.5h1.1a.5.5 0 0 1 .4.2l2.22 3a.25.25 0 0 0 .45-.15V7.53a.5.5 0 0 1 .5-.5h.81a.5.5 0 0 1 .5.5v6a.5.5 0 0 1-.5.5h-1a.5.5 0 0 1-.4-.21l-2.35-3.22a.25.25 0 0 0-.43.14zM7.84 8.66h2.57a.5.5 0 0 0 .5-.5v-.58a.5.5 0 0 0-.5-.5H6.29a.5.5 0 0 0-.5.5v6a.5.5 0 0 0 .5.5h4.12a.5.5 0 0 0 .5-.5V13a.5.5 0 0 0-.5-.5H7.84c-.76 0-.75-1.43 0-1.43h1.5c.28 0 1 0 1-.25a1.74 1.74 0 0 0 0-.57c0-.3-.72-.2-1-.2h-1.5c-.69-.05-.69-1.38 0-1.39z" fill="#ABE1FF"></path></symbol></defs><use xlink:href="#icon-subject-english" fill="#FFFFFF"></use></svg>