<svg xmlns:xlink="http://www.w3.org/1999/xlink" xmlns="http://www.w3.org/2000/svg" class="sg-subject-icon sg-subject-icon--small" width="24"  height="24" ><defs><symbol viewBox="0 0 24 24" style="overflow: visible" id="icon-subject-history" xmlns="http://www.w3.org/2000/svg"><defs><style>.bgb{fill:#ff796b}.bgc{fill:#fec83c}.bgd{fill:#020a1a}</style></defs><title>history</title><rect class="bgb" x="5.02" y="4.97" width="13.92" height="2.01" rx=".5" ry=".5" fill="#FF796B"></rect><path class="bgc" d="M9 10.92a1 1 0 1 0-2 0V22h2zM13 10.92a1 1 0 0 0-2 0V22h2zM17 10.92a1 1 0 0 0-2 0V22h2z" fill="#FEC83C"></path><path class="bgd" d="M5 8.42V22h2V10.92a1 1 0 0 1 2 0V22h2V10.92a1 1 0 0 1 1-1 1 1 0 0 1 1 1V22h2V10.92a1 1 0 0 1 2 0V22h2V8.42a.5.5 0 0 0-.5-.5h-13a.5.5 0 0 0-.5.5z" fill="#020A1A"></path><rect class="bgd" x="3" y="1.98" width="18" height="2" rx="1" ry="1" fill="#020A1A"></rect></symbol></defs><use xlink:href="#icon-subject-history" fill="#FFFFFF"></use></svg>