<svg xmlns:xlink="http://www.w3.org/1999/xlink" xmlns="http://www.w3.org/2000/svg" class="sg-subject-icon sg-subject-icon--small" width="24"  height="24" ><defs><symbol viewBox="0 0 24 24" style="overflow: visible" id="icon-subject-informatics" xmlns="http://www.w3.org/2000/svg"><defs><style>.bjb{fill:#fec83c}.bjc{fill:#020a1a}</style></defs><title>informatics</title><rect class="bjb" x="6" y="4" width="12" height="8" rx=".5" ry=".5" fill="#FEC83C"></rect><path class="bjc" d="M5 4v8a1 1 0 0 0 1 1h12a1 1 0 0 0 1-1V4a1 1 0 0 0-1-1H6a1 1 0 0 0-1 1zm11.58 7H7.42a.4.4 0 0 1-.42-.38V5.37A.4.4 0 0 1 7.42 5h9.17a.4.4 0 0 1 .42.37v5.25a.4.4 0 0 1-.43.38zM20.51 21h-17a1 1 0 0 1-.92-1.39l2.14-5a1 1 0 0 1 .93-.61h12.68a1 1 0 0 1 .92.6l2.17 5a1 1 0 0 1-.92 1.4z" fill="#020A1A"></path></symbol></defs><use xlink:href="#icon-subject-informatics" fill="#FFFFFF"></use></svg>