<svg xmlns:xlink="http://www.w3.org/1999/xlink" xmlns="http://www.w3.org/2000/svg" class="sg-subject-icon sg-subject-icon--small" width="24"  height="24" ><defs><symbol viewBox="0 0 24 24" style="overflow: visible" id="icon-subject-language" xmlns="http://www.w3.org/2000/svg"><defs><style>.bqb{fill:#020a1a}.bqc{fill:#57b2f8}.bqd{fill:#ff796b}</style></defs><title>language</title><path class="bqb" d="M3 3h18a1 1 0 0 1 1 1v11a2 2 0 0 1-2 2H4a2 2 0 0 1-2-2V4a1 1 0 0 1 1-1z" fill="#020A1A"></path><path class="bqc" d="M20.17 18h-5.53a1.08 1.08 0 0 0-.69.28 3 3 0 0 1-3.88 0 1.08 1.08 0 0 0-.7-.28H3.89C2.85 18 2 17.43 2 16.77V18a2 2 0 0 0 2 2h5a1 1 0 0 1 .61.22 4 4 0 0 0 4.76 0A1 1 0 0 1 15 20h5.09A1.93 1.93 0 0 0 22 18v-1.15c-.05.62-.84 1.15-1.83 1.15z" fill="#57B2F8"></path><path class="bqd" d="M11 3v14a1 1 0 0 0 2 0V3z" fill="#FF796B"></path></symbol></defs><use xlink:href="#icon-subject-language" fill="#FFFFFF"></use></svg>