<svg xmlns:xlink="http://www.w3.org/1999/xlink" xmlns="http://www.w3.org/2000/svg" class="sg-subject-icon sg-subject-icon--small" width="24"  height="24" ><defs><symbol viewBox="0 0 24 24" style="overflow: visible" id="icon-subject-life-science" xmlns="http://www.w3.org/2000/svg"><defs><style>.btb{fill:#57b2f8}.btc{fill:#ff796b}.btd{fill:#fec83c}.bte{fill:#020a1a}</style></defs><title>life-science</title><rect class="btb" x="5.46" y="4" width="9" height="1" rx=".5" ry=".5" fill="#57B2F8"></rect><rect class="btc" x="8.46" y="6" width="9" height="1" rx=".5" ry=".5" fill="#FF796B"></rect><rect class="btd" x="7.48" y="8" width="6" height="1" rx=".5" ry=".5" fill="#FEC83C"></rect><rect class="btb" x="8.48" y="19" width="9" height="1" rx=".5" ry=".5" transform="rotate(180 12.985 19.5)" fill="#57B2F8"></rect><rect class="btc" x="5.54" y="17" width="9" height="1" rx=".5" ry=".5" transform="rotate(-180 10.035 17.5)" fill="#FF796B"></rect><rect class="btd" x="9.47" y="15" width="6.74" height="1" rx=".5" ry=".5" transform="rotate(180 12.84 15.5)" fill="#FEC83C"></rect><path class="bte" d="M16.45 22.06a.95.95 0 0 1-.9-1.25 6.39 6.39 0 0 0-1.44-6.33 9.58 9.58 0 0 0-2.72-1.73l-1-.49a9.79 9.79 0 0 1-4-3.38 8.13 8.13 0 0 1-.89-6.3.95.95 0 1 1 1.8.57 6.16 6.16 0 0 0 .71 4.76 8.1 8.1 0 0 0 3.24 2.67l.93.47a11.14 11.14 0 0 1 3.24 2.11 8.22 8.22 0 0 1 1.88 8.25 1 1 0 0 1-.85.65z" fill="#020A1A"></path><path class="bte" d="M16.45 1.93a.95.95 0 0 0-.9 1.25 6.39 6.39 0 0 1-1.44 6.32 9.58 9.58 0 0 1-2.72 1.73l-1 .49a9.79 9.79 0 0 0-4 3.38 8.13 8.13 0 0 0-.89 6.3.95.95 0 1 0 1.8-.57 6.16 6.16 0 0 1 .71-4.76 8.1 8.1 0 0 1 3.24-2.67l.93-.47a11.14 11.14 0 0 0 3.24-2.11 8.22 8.22 0 0 0 1.88-8.25 1 1 0 0 0-.85-.64z" fill="#020A1A"></path></symbol></defs><use xlink:href="#icon-subject-life-science" fill="#FFFFFF"></use></svg>