<svg xmlns:xlink="http://www.w3.org/1999/xlink" xmlns="http://www.w3.org/2000/svg" class="sg-subject-icon sg-subject-icon--small" width="24"  height="24" ><defs><symbol viewBox="0 0 24 24" style="overflow: visible" id="icon-subject-mathematics" xmlns="http://www.w3.org/2000/svg"><defs><style>.bwb{fill:#ff796b}.bwc{fill:#020a1a}</style></defs><title>mathematics</title><circle class="bwb" cx="16.49" cy="16.51" r="1.5" fill="#FF796B"></circle><path class="bwc" d="M16 6h4V4H5a3 3 0 0 0-3 3h2a1 1 0 0 1 1-1h2a1 1 0 0 1 1 1v12h2V7a1 1 0 0 1 1-1h1a1 1 0 0 1 1 1v9.5a3.53 3.53 0 0 0 5.1 3.15 3.34 3.34 0 0 0 1.9-3.14h-2a1.5 1.5 0 0 1-3 0V7a1 1 0 0 1 1-1z" fill="#020A1A"></path><circle class="bwc" cx="2.99" cy="7.01" r="1" fill="#020A1A"></circle><circle class="bwc" cx="19.99" cy="4.98" r="1" fill="#020A1A"></circle><circle class="bwc" cx="18.99" cy="16.51" r="1" fill="#020A1A"></circle><circle class="bwc" cx="8.99" cy="18.98" r="1" fill="#020A1A"></circle></symbol></defs><use xlink:href="#icon-subject-mathematics" fill="#FFFFFF"></use></svg>