<svg xmlns:xlink="http://www.w3.org/1999/xlink" xmlns="http://www.w3.org/2000/svg" class="sg-icon__svg" width="512"  height="512" ><defs><symbol viewBox="0 0 512 512" style="overflow: visible" id="icon-menu" xmlns="http://www.w3.org/2000/svg"><title>menu</title><path d="M85.33 149.33a21.33 21.33 0 0 0 18.99 21.34h303.36a21.33 21.33 0 0 0 18.99-21.34A21.33 21.33 0 0 0 407.68 128H104.32a21.33 21.33 0 0 0-18.99 21.33zm18.99 128h303.36a21.33 21.33 0 1 0 0-42.66H104.32a21.33 21.33 0 1 0 0 42.66zm0 106.67h303.36a21.33 21.33 0 1 0 0-42.67H104.32a21.33 21.33 0 0 0 0 42.67z"></path></symbol></defs><use xlink:href="#icon-menu"></use></svg>