<svg xmlns:xlink="http://www.w3.org/1999/xlink" xmlns="http://www.w3.org/2000/svg" class="sg-subject-icon sg-subject-icon--small" width="24"  height="24" ><defs><symbol viewBox="0 0 24 24" style="overflow: visible" id="icon-subject-otherlanguages" xmlns="http://www.w3.org/2000/svg"><defs><style>.bzb{fill:#020a1a}.bzc{fill:#abe1ff}</style></defs><title>otherlanguages</title><path class="bzb" d="M21 4H3a1 1 0 0 0-1 1v15.79a.5.5 0 0 0 .85.35L7 17h14a1 1 0 0 0 1-1V5a1 1 0 0 0-1-1z" fill="#020A1A"></path><path class="bzc" d="M7.29 11.15a1.5 1.5 0 1 1-1.5 1.5 1.52 1.52 0 0 1 1.5-1.5zM12.24 11.15a1.5 1.5 0 1 1-1.5 1.5 1.52 1.52 0 0 1 1.5-1.5zM17.18 11.15a1.5 1.5 0 1 1-1.5 1.5 1.52 1.52 0 0 1 1.5-1.5z" fill="#ABE1FF"></path></symbol></defs><use xlink:href="#icon-subject-otherlanguages" fill="#FFFFFF"></use></svg>