<svg xmlns:xlink="http://www.w3.org/1999/xlink" xmlns="http://www.w3.org/2000/svg" class="sg-subject-icon sg-subject-icon--small" width="24"  height="24" ><defs><symbol viewBox="0 0 24 24" style="overflow: visible" id="icon-subject-philosophy" xmlns="http://www.w3.org/2000/svg"><defs><style>.ccb{fill:#020a1a}.ccc{fill:#57b2f8}</style></defs><title>philosophy</title><path class="ccb" d="M20.55 8A9 9 0 0 0 3 10.92v3.64a7.5 7.5 0 0 0 5 7 2.54 2.54 0 0 1 2 .44h.55A7.5 7.5 0 0 0 18 14.45V12h2.05a1 1 0 0 0 1-1 9 9 0 0 0-.5-3zm-4.48 2a1 1 0 1 1 1-1 1 1 0 0 1-1 1z" fill="#020A1A"></path><path class="ccc" d="M10 12.51a4.15 4.15 0 0 0 4-4C13.75 3.77 8.21 4.4 8 7v3.1a1.9 1.9 0 0 1-1-1.6v-.05a1 1 0 0 0-2-.06v.15a4.06 4.06 0 0 0 3 3.77v9.27a7.44 7.44 0 0 0 2 .42zm0-4.44c0-1.07 1.19-1.15 1.72-.46a1.32 1.32 0 0 1 .28.92 2.17 2.17 0 0 1-2 2z" fill="#57B2F8"></path></symbol></defs><use xlink:href="#icon-subject-philosophy" fill="#FFFFFF"></use></svg>