<svg xmlns:xlink="http://www.w3.org/1999/xlink" xmlns="http://www.w3.org/2000/svg" class="sg-subject-icon sg-subject-icon--small" width="24"  height="24" ><defs><symbol viewBox="0 0 24 24" style="overflow: visible" id="icon-subject-physical-education" xmlns="http://www.w3.org/2000/svg"><defs><style>.cdb{fill:#020a1a}.cdc{fill:#ff796b}</style></defs><title>physical_education</title><path class="cdb" d="M21 12a9 9 0 0 1-2 5.62A4.86 4.86 0 0 0 17.6 19a9 9 0 0 1-11.19 0A8 8 0 0 0 5 17.62 9 9 0 0 1 5 6.31a3.27 3.27 0 0 0 1.47-1.4 9 9 0 0 1 11.08 0A6.81 6.81 0 0 0 19 6.31 9 9 0 0 1 21 12z" fill="#020A1A"></path><path class="cdc" d="M6.41 19a10.26 10.26 0 0 0 2.84-7.1 10.26 10.26 0 0 0-2.78-7A9.07 9.07 0 0 0 5 6.31a8.25 8.25 0 0 1 2.21 5.63A8.26 8.26 0 0 1 5 17.62 9 9 0 0 0 6.41 19zM19 17.62a8.26 8.26 0 0 1 0-11.31 9.06 9.06 0 0 0-1.44-1.4A10.27 10.27 0 0 0 17.6 19a9 9 0 0 0 1.4-1.38z" fill="#FF796B"></path></symbol></defs><use xlink:href="#icon-subject-physical-education" fill="#FFFFFF"></use></svg>