<svg xmlns:xlink="http://www.w3.org/1999/xlink" xmlns="http://www.w3.org/2000/svg" class="sg-subject-icon sg-subject-icon--small" width="24"  height="24" ><defs><symbol viewBox="0 0 24 24" style="overflow: visible" id="icon-subject-physics" xmlns="http://www.w3.org/2000/svg"><defs><style>.ceb{fill:#57b2f8}.cec{fill:#ff796b}.ced{fill:#020a1a}.cee{fill:#fec83c}</style></defs><title>physics</title><path class="ceb" d="M2.723 12.627l.707-.707a1 1 0 0 1 1.415 0l.353.354a.5.5 0 0 1 0 .707l-1.414 1.414a.5.5 0 0 1-.707 0l-.354-.354a1 1 0 0 1 0-1.414z" fill="#57B2F8"></path><path class="cec" d="M11.878 3.405l.707-.707a1 1 0 0 1 1.414 0l.354.354a.5.5 0 0 1 0 .707l-1.414 1.414a.5.5 0 0 1-.707 0l-.354-.354a1 1 0 0 1 0-1.414z" fill="#FF796B"></path><path class="ced" d="M17.48 18.2a.5.5 0 0 0-.65 0 5 5 0 0 1-6.36-.59l-3.9-3.9a.5.5 0 0 0-.71 0l-1.4 1.37a.5.5 0 0 0 0 .71l3.88 3.88a8 8 0 0 0 10.52.7.5.5 0 0 0 0-.75zM13.65 5.89a.5.5 0 0 0 0 .71l3.9 3.9a5 5 0 0 1 .59 6.36.5.5 0 0 0 0 .65l1.41 1.41a.5.5 0 0 0 .75 0 8 8 0 0 0-.7-10.51l-3.83-3.93a.5.5 0 0 0-.71 0z" fill="#020A1A"></path><path class="cee" d="M3.32 4.71L5.73 9.2a1 1 0 0 0 1.57.2l2.1-2.1-1.57-.2 2.39 4.51c.6 1.14 2.33.13 1.73-1L9.56 6.09A1 1 0 0 0 8 5.88L5.89 8l1.57.2-2.41-4.5c-.61-1.13-2.34-.13-1.73 1z" fill="#FEC83C"></path></symbol></defs><use xlink:href="#icon-subject-physics" fill="#FFFFFF"></use></svg>