<svg xmlns:xlink="http://www.w3.org/1999/xlink" xmlns="http://www.w3.org/2000/svg" class="sg-subject-icon sg-subject-icon--small" width="24"  height="24" ><defs><symbol viewBox="0 0 24 24" style="overflow: visible" id="icon-subject-religion" xmlns="http://www.w3.org/2000/svg"><defs><style>.chb{fill:#020a1a}.chc{fill:#fec83c}</style></defs><title>religion_1</title><path class="chb" d="M16.1 8.9a7.17 7.17 0 0 0-13.93 2.27v2.89a6 6 0 1 0 11.91 0V12h1.42a1 1 0 0 0 1-1 7.17 7.17 0 0 0-.4-2.1zm-3.56 1.57a.78.78 0 1 1 .78-.77.78.78 0 0 1-.78.77z" fill="#020A1A"></path><ellipse class="chc" cx="9.07" cy="2.59" rx="4.66" ry=".86" fill="#FEC83C"></ellipse><rect class="chb" x="16.23" y="17.72" width="6.2" height=".86" rx=".43" ry=".43" transform="rotate(120.7 19.329 18.167)" fill="#020A1A"></rect><rect class="chb" x="15.84" y="15.77" width="6.78" height=".86" rx=".43" ry=".43" transform="rotate(120.74 19.234 16.2)" fill="#020A1A"></rect><rect class="chb" x="14.36" y="15.03" width="8.13" height=".86" rx=".43" ry=".43" transform="rotate(120.74 18.426 15.457)" fill="#020A1A"></rect><rect class="chb" x="13.09" y="15.02" width="8.13" height=".86" rx=".43" ry=".43" transform="rotate(120.74 17.157 15.443)" fill="#020A1A"></rect><path class="chb" d="M17.31 17.16l-.11-.07a2.64 2.64 0 0 0-1.67-.34l.76-1.32s1-1.59-.6-1.71c0 0 0 1.07-2 4.05 0 0-.12.16-.17.25a2.68 2.68 0 0 0 .93 3.66l.11.07a2.67 2.67 0 1 0 2.73-4.59z" fill="#020A1A"></path></symbol></defs><use xlink:href="#icon-subject-religion" fill="#FFFFFF"></use></svg>