<svg xmlns:xlink="http://www.w3.org/1999/xlink" xmlns="http://www.w3.org/2000/svg" class="sg-subject-icon sg-subject-icon--small" width="24"  height="24" ><defs><symbol viewBox="0 0 24 24" style="overflow: visible" id="icon-subject-science" xmlns="http://www.w3.org/2000/svg"><defs><style>.clb{fill:#57b2f8}.clc{fill:#ff796b}.cld{fill:#020a1a}</style></defs><title>science</title><path class="clb" d="M8.52 2A1.5 1.5 0 0 1 10 3.51v6a.5.5 0 0 1-.5.5h-2a.5.5 0 0 1-.5-.5v-6A1.5 1.5 0 0 1 8.52 2z" fill="#57B2F8"></path><rect class="clc" x="7.02" y="11.01" width="3" height="1.96" rx=".98" ry=".98" fill="#FF796B"></rect><path class="cld" d="M18 20h-1.91a7.47 7.47 0 0 0-.48-13.24 7.36 7.36 0 0 0-4.16-.7.5.5 0 0 0-.43.5v1a.49.49 0 0 0 .55.5 5.5 5.5 0 0 1 2 10.82L11 16a1 1 0 1 0 0-2H7a1 1 0 0 0 0 2h.9l3.56 4H5a1 1 0 0 0 0 2h13a1 1 0 0 0 0-2z" fill="#020A1A"></path></symbol></defs><use xlink:href="#icon-subject-science" fill="#FFFFFF"></use></svg>