<svg xmlns:xlink="http://www.w3.org/1999/xlink" xmlns="http://www.w3.org/2000/svg" class="sg-subject-icon sg-subject-icon--small" width="24"  height="24" ><defs><symbol viewBox="0 0 24 24" style="overflow: visible" id="icon-subject-spanish" xmlns="http://www.w3.org/2000/svg"><defs><style>.crb{fill:#020a1a}.crc{fill:#abe1ff}</style></defs><title>spanish</title><path class="crb" d="M21 4H3a1 1 0 0 0-1 1v15.8a.5.5 0 0 0 .85.35L7 17h14a1 1 0 0 0 1-1V5a1 1 0 0 0-1-1z" fill="#020A1A"></path><path class="crc" d="M13 12.1a.5.5 0 0 1 .7-.11 3.14 3.14 0 0 0 1.84.59c.62 0 1-.24 1-.58s-.52-.48-1.19-.62c-1.15-.23-2.76-.54-2.76-2.26 0-1.17 1-2.22 2.78-2.22a4.43 4.43 0 0 1 2.38.64.51.51 0 0 1 .15.74l-.4.52a.49.49 0 0 1-.65.1 3.32 3.32 0 0 0-1.67-.46c-.52 0-.75.21-.75.5s.53.45 1.2.61c1.15.24 2.74.59 2.74 2.23 0 1.4-1 2.33-2.91 2.33a4.47 4.47 0 0 1-2.71-.78.51.51 0 0 1-.13-.71zM8.57 8.6h2.57a.5.5 0 0 0 .5-.5v-.59a.5.5 0 0 0-.5-.5H7a.5.5 0 0 0-.5.5v6A.5.5 0 0 0 7 14h4.12a.5.5 0 0 0 .5-.5v-.57a.5.5 0 0 0-.5-.5H8.57c-.76 0-.75-1.43 0-1.43h1.49c.28 0 1 0 1-.25a1.74 1.74 0 0 0 0-.57c0-.3-.72-.2-1-.2H8.58c-.69.02-.69-1.38-.01-1.38z" fill="#ABE1FF"></path></symbol></defs><use xlink:href="#icon-subject-spanish" fill="#FFFFFF"></use></svg>