<svg xmlns:xlink="http://www.w3.org/1999/xlink" xmlns="http://www.w3.org/2000/svg" class="sg-subject-icon sg-subject-icon--small" width="24"  height="24" ><defs><symbol viewBox="0 0 24 24" style="overflow: visible" id="icon-subject-technology" xmlns="http://www.w3.org/2000/svg"><defs><style>.ctb{fill:#53cf92}.ctc{fill:#fec83c}.ctd{fill:#020a1a}</style></defs><title>technology</title><rect class="ctb" x="7" y="2" width="2" height="4" rx="1" ry="1" fill="#53CF92"></rect><rect class="ctb" x="11" y="2" width="2" height="4" rx="1" ry="1" fill="#53CF92"></rect><rect class="ctb" x="15" y="2" width="2" height="4" rx="1" ry="1" fill="#53CF92"></rect><rect class="ctb" x="7" y="18" width="2" height="4" rx="1" ry="1" fill="#53CF92"></rect><rect class="ctb" x="11" y="18" width="2" height="4" rx="1" ry="1" fill="#53CF92"></rect><rect class="ctb" x="15" y="18" width="2" height="4" rx="1" ry="1" fill="#53CF92"></rect><rect class="ctc" x="18" y="7" width="4" height="2" rx="1" ry="1" fill="#FEC83C"></rect><rect class="ctc" x="18" y="11" width="4" height="2" rx="1" ry="1" fill="#FEC83C"></rect><rect class="ctc" x="18" y="15" width="4" height="2" rx="1" ry="1" fill="#FEC83C"></rect><rect class="ctc" x="2" y="7" width="4" height="2" rx="1" ry="1" fill="#FEC83C"></rect><rect class="ctc" x="2" y="11" width="4" height="2" rx="1" ry="1" fill="#FEC83C"></rect><rect class="ctc" x="2" y="15" width="4" height="2" rx="1" ry="1" fill="#FEC83C"></rect><rect class="ctd" x="7" y="7" width="10" height="10" rx="2" ry="2" fill="#020A1A"></rect></symbol></defs><use xlink:href="#icon-subject-technology" fill="#FFFFFF"></use></svg>